<?xml version="1.0" encoding="UTF-8" standalone="no"?>
<svg
   xmlns:dc="http://purl.org/dc/elements/1.1/"
   xmlns:cc="http://creativecommons.org/ns#"
   xmlns:rdf="http://www.w3.org/1999/02/22-rdf-syntax-ns#"
   xmlns:svg="http://www.w3.org/2000/svg"
   xmlns="http://www.w3.org/2000/svg"
   id="svg950"
   version="1.1"
   viewBox="0 0 79.374999 66.145835"
   height="250"
   width="300">
  <defs
     id="defs944" />
  <metadata
     id="metadata947">
    <rdf:RDF>
      <cc:Work
         rdf:about="">
        <dc:format>image/svg+xml</dc:format>
        <dc:type
           rdf:resource="http://purl.org/dc/dcmitype/StillImage" />
        <dc:title></dc:title>
      </cc:Work>
    </rdf:RDF>
  </metadata>
  <g
     transform="translate(0,-230.85415)"
     id="layer1">
    <path
       id="path895"
       d="m 76.936271,250.18248 c 0,-0.39535 -0.207026,-0.79063 -0.62116,-1.09244 l -11.61973,-8.46843 c -1.335287,-0.97313 -3.619105,-0.28406 -3.619105,1.09245 v 1.09873 l 8.613157,6.27725 c 0.828268,0.60362 0.828268,1.58124 0,2.18489 l -8.613157,6.27802 v 1.09872 c 0,1.37649 2.283818,2.06559 3.619105,1.09244 l 11.61973,-8.46918 c 0.414134,-0.30183 0.62116,-0.69711 0.62116,-1.09245 z"
       style="opacity:0.2;fill:#ffffff;fill-opacity:1;fill-rule:nonzero;stroke:none;stroke-width:0.47135893" />
    <path
       d="m 52.029719,259.9718 11.896819,-8.67038 c 0.848013,-0.61802 0.848013,-1.61907 0,-2.2371 l -11.896819,-8.67041 c -1.367122,-0.99634 -3.705649,-0.29123 -3.705649,1.1181 v 17.34169 c 0,1.40933 2.338527,2.11447 3.705649,1.1181"
       style="fill:#ff5555;fill-opacity:1;fill-rule:nonzero;stroke:none;stroke-width:0.48259804"
       id="path897" />
    <g
       transform="matrix(0.29024993,0,0,0.29024993,-61.100153,63.201336)"
       id="g913"
       style="opacity:0.5;fill:#ffffff;fill-opacity:1">
      <g
         id="g905"
         transform="matrix(0.95443148,0,0,0.95443148,941.93499,782.20409)"
         style="fill:#ffffff;fill-opacity:1">
        <path
           d="m -603.45864,-150.48826 q 0,22.53217 -17.83799,29.10407 l 23.73926,33.53004 h -25.75106 l -20.78863,-29.90879 h -14.48497 v 29.90879 h -20.92276 v -93.75 h 35.54185 q 21.86158,0 31.11588,7.3766 9.38842,7.37663 9.38842,23.73929 z m -39.83371,14.61908 q 10.72962,0 14.61911,-3.48712 3.8895,-3.48712 3.8895,-10.99786 0,-7.64485 -4.02361,-10.46136 -4.02362,-2.81654 -14.08262,-2.81654 h -15.69206 v 27.76288 z"
           style="font-style:normal;font-variant:normal;font-weight:bold;font-stretch:normal;font-size:medium;line-height:125%;font-family:Montserrat;-inkscape-font-specification:'Montserrat Bold';letter-spacing:0px;word-spacing:0px;opacity:1;fill:#ffffff;fill-opacity:1;stroke:none;stroke-width:0.76127291px;stroke-linecap:butt;stroke-linejoin:miter;stroke-opacity:1"
           id="path901" />
        <path
           d="m -680.84599,-87.85415 -8.71781,-20.25213 h -39.2972 l -8.71782,20.25213 h -22.26395 l 40.50429,-93.75 h 20.25216 l 40.50429,93.75 z m -28.29935,-65.85299 -11.80257,27.22639 h 23.47102 z"
           style="font-style:normal;font-variant:normal;font-weight:bold;font-stretch:normal;font-size:medium;line-height:125%;font-family:Montserrat;-inkscape-font-specification:'Montserrat Bold';letter-spacing:0px;word-spacing:0px;opacity:1;fill:#ffffff;fill-opacity:1;stroke:none;stroke-width:0.76127291px;stroke-linecap:butt;stroke-linejoin:miter;stroke-opacity:1"
           id="path903" />
      </g>
      <g
         id="g911"
         style="fill:#ffffff;fill-opacity:1">
        <path
           d="m 458.16567,729.85716 q 0,-11.59094 -7.39847,-19.72927 -7.39848,-8.13833 -18.24956,-8.13833 -10.72779,0 -18.12626,8.13833 -7.39847,8.13833 -7.39847,19.72927 0,11.46757 7.39847,19.60592 7.39847,8.015 18.12626,8.015 10.85108,0 18.24956,-8.015 7.39847,-8.13835 7.39847,-19.60592 z m 6.53532,31.69015 q -13.07064,12.70068 -32.18335,12.70068 -19.11273,0 -32.18335,-12.70068 -13.07064,-12.82412 -13.07064,-31.81347 0,-18.9894 13.07064,-31.69012 13.07062,-12.82402 32.18335,-12.82402 19.11271,0 32.18335,12.82402 13.07061,12.70072 13.07061,31.69012 0,18.98935 -13.07061,31.81347 z"
           style="font-style:normal;font-variant:normal;font-weight:bold;font-stretch:normal;font-size:medium;line-height:125%;font-family:Montserrat;-inkscape-font-specification:'Montserrat Bold';letter-spacing:0px;word-spacing:0px;opacity:1;fill:#ffffff;fill-opacity:1;stroke:none;stroke-width:0.69990158px;stroke-linecap:butt;stroke-linejoin:miter;stroke-opacity:1"
           id="path907" />
        <path
           d="m 376.83012,728.33379 h 19.33254 v 30.53803 q -12.80628,14.28397 -35.46352,14.28397 -18.96316,0 -31.89255,-12.56 -12.8063,-12.56002 -12.8063,-31.64632 0,-19.20941 13.05256,-32.01568 13.1757,-12.80629 31.64629,-12.80629 18.59372,0 32.26196,12.1906 l -9.97413,14.40706 q -5.78744,-5.04863 -10.71293,-6.89567 -4.80237,-1.97021 -10.46669,-1.97021 -10.95921,0 -18.47057,7.51138 -7.51137,7.38822 -7.51137,19.57881 0,12.19062 7.14195,19.57881 7.26513,7.2651 17.23923,7.2651 9.97411,0 16.62353,-3.81723 z"
           style="font-style:normal;font-variant:normal;font-weight:bold;font-stretch:normal;font-size:medium;line-height:125%;font-family:Montserrat;-inkscape-font-specification:'Montserrat Bold';letter-spacing:0px;word-spacing:0px;opacity:1;fill:#ffffff;fill-opacity:1;stroke:none;stroke-width:0.69893348px;stroke-linecap:butt;stroke-linejoin:miter;stroke-opacity:1"
           id="path909" />
      </g>
    </g>
  </g>
</svg>
