<?xml version="1.0" encoding="UTF-8" standalone="no"?>
<svg
   xmlns:dc="http://purl.org/dc/elements/1.1/"
   xmlns:cc="http://creativecommons.org/ns#"
   xmlns:rdf="http://www.w3.org/1999/02/22-rdf-syntax-ns#"
   xmlns:svg="http://www.w3.org/2000/svg"
   xmlns="http://www.w3.org/2000/svg"
   id="svg6792"
   version="1.1"
   viewBox="0 0 18.520833 13.229167"
   height="50"
   width="70">
  <defs
     id="defs6786" />
  <metadata
     id="metadata6789">
    <rdf:RDF>
      <cc:Work
         rdf:about="">
        <dc:format>image/svg+xml</dc:format>
        <dc:type
           rdf:resource="http://purl.org/dc/dcmitype/StillImage" />
        <dc:title></dc:title>
      </cc:Work>
    </rdf:RDF>
  </metadata>
  <g
     transform="translate(0,-283.77082)"
     id="layer1">
    <g
       transform="matrix(0.24353448,0,0,0.24353448,-70.61752,11.840764)"
       id="g6749">
      <g
         transform="matrix(0,0.2547198,-0.34950805,0,615.52349,1252.311)"
         id="g6596">
        <path
           id="path6592"
           d="m -477.28115,721.70797 c -1.4703,0 -2.94037,0.56113 -4.06286,1.68361 l -31.49447,31.49445 c -3.61919,3.6192 -1.05643,9.80933 4.06286,9.80933 h 4.08626 L -481.34401,741.35 c 2.24496,-2.24495 5.88076,-2.24495 8.12572,0 l 23.34829,23.34536 h 4.08622 c 5.11929,0 7.68207,-6.19013 4.06288,-9.80933 l -31.49739,-31.49445 c -1.12248,-1.12248 -2.59256,-1.68361 -4.06286,-1.68361 z"
           style="fill:#e5e5e2;fill-opacity:1;fill-rule:nonzero;stroke:none;stroke-width:1.49653506" />
        <path
           d="m -440.87407,789.2154 -32.24566,-32.24547 c -2.29848,-2.29849 -6.02144,-2.29849 -8.31992,0 l -32.24567,32.24547 c -3.70548,3.70549 -1.08307,10.04391 4.15829,10.04391 h 64.49467 c 5.24135,0 7.86378,-6.33842 4.15829,-10.04391"
           style="fill:#ff5555;fill-opacity:1;fill-rule:nonzero;stroke:none;stroke-width:1.53221858"
           id="path6594" />
      </g>
      <g
         style="fill:#4d4d4d;fill-opacity:1"
         id="g6610"
         transform="matrix(0.27495857,0,0,0.27495857,232.51655,953.60772)">
        <g
           style="fill:#4d4d4d;fill-opacity:1"
           transform="matrix(0.95443148,0,0,0.95443148,941.93499,782.20409)"
           id="g6602">
          <path
             id="path6598"
             style="font-style:normal;font-variant:normal;font-weight:bold;font-stretch:normal;font-size:medium;line-height:125%;font-family:Montserrat;-inkscape-font-specification:'Montserrat Bold';letter-spacing:0px;word-spacing:0px;opacity:1;fill:#4d4d4d;fill-opacity:1;stroke:none;stroke-width:0.76127291px;stroke-linecap:butt;stroke-linejoin:miter;stroke-opacity:1"
             d="m -603.45864,-150.48826 q 0,22.53217 -17.83799,29.10407 l 23.73926,33.53004 h -25.75106 l -20.78863,-29.90879 h -14.48497 v 29.90879 h -20.92276 v -93.75 h 35.54185 q 21.86158,0 31.11588,7.3766 9.38842,7.37663 9.38842,23.73929 z m -39.83371,14.61908 q 10.72962,0 14.61911,-3.48712 3.8895,-3.48712 3.8895,-10.99786 0,-7.64485 -4.02361,-10.46136 -4.02362,-2.81654 -14.08262,-2.81654 h -15.69206 v 27.76288 z" />
          <path
             id="path6600"
             style="font-style:normal;font-variant:normal;font-weight:bold;font-stretch:normal;font-size:medium;line-height:125%;font-family:Montserrat;-inkscape-font-specification:'Montserrat Bold';letter-spacing:0px;word-spacing:0px;opacity:1;fill:#4d4d4d;fill-opacity:1;stroke:none;stroke-width:0.76127291px;stroke-linecap:butt;stroke-linejoin:miter;stroke-opacity:1"
             d="m -680.84599,-87.85415 -8.71781,-20.25213 h -39.2972 l -8.71782,20.25213 h -22.26395 l 40.50429,-93.75 h 20.25216 l 40.50429,93.75 z m -28.29935,-65.85299 -11.80257,27.22639 h 23.47102 z" />
        </g>
        <g
           style="fill:#4d4d4d;fill-opacity:1"
           id="g6608">
          <path
             id="path6604"
             style="font-style:normal;font-variant:normal;font-weight:bold;font-stretch:normal;font-size:medium;line-height:125%;font-family:Montserrat;-inkscape-font-specification:'Montserrat Bold';letter-spacing:0px;word-spacing:0px;opacity:1;fill:#4d4d4d;fill-opacity:1;stroke:none;stroke-width:0.69990158px;stroke-linecap:butt;stroke-linejoin:miter;stroke-opacity:1"
             d="m 458.16567,729.85716 q 0,-11.59094 -7.39847,-19.72927 -7.39848,-8.13833 -18.24956,-8.13833 -10.72779,0 -18.12626,8.13833 -7.39847,8.13833 -7.39847,19.72927 0,11.46757 7.39847,19.60592 7.39847,8.015 18.12626,8.015 10.85108,0 18.24956,-8.015 7.39847,-8.13835 7.39847,-19.60592 z m 6.53532,31.69015 q -13.07064,12.70068 -32.18335,12.70068 -19.11273,0 -32.18335,-12.70068 -13.07064,-12.82412 -13.07064,-31.81347 0,-18.9894 13.07064,-31.69012 13.07062,-12.82402 32.18335,-12.82402 19.11271,0 32.18335,12.82402 13.07061,12.70072 13.07061,31.69012 0,18.98935 -13.07061,31.81347 z" />
          <path
             id="path6606"
             style="font-style:normal;font-variant:normal;font-weight:bold;font-stretch:normal;font-size:medium;line-height:125%;font-family:Montserrat;-inkscape-font-specification:'Montserrat Bold';letter-spacing:0px;word-spacing:0px;opacity:1;fill:#4d4d4d;fill-opacity:1;stroke:none;stroke-width:0.69893348px;stroke-linecap:butt;stroke-linejoin:miter;stroke-opacity:1"
             d="m 376.83012,728.33379 h 19.33254 v 30.53803 q -12.80628,14.28397 -35.46352,14.28397 -18.96316,0 -31.89255,-12.56 -12.8063,-12.56002 -12.8063,-31.64632 0,-19.20941 13.05256,-32.01568 13.1757,-12.80629 31.64629,-12.80629 18.59372,0 32.26196,12.1906 l -9.97413,14.40706 q -5.78744,-5.04863 -10.71293,-6.89567 -4.80237,-1.97021 -10.46669,-1.97021 -10.95921,0 -18.47057,7.51138 -7.51137,7.38822 -7.51137,19.57881 0,12.19062 7.14195,19.57881 7.26513,7.2651 17.23923,7.2651 9.97411,0 16.62353,-3.81723 z" />
        </g>
      </g>
    </g>
  </g>
</svg>
